<svg xmlns="http://www.w3.org/2000/svg" width="512" height="512" viewBox="0 0 512 512">
<g>
<path d="M 415.32 374.88 C411.51,377.14 407.71,379.00 406.89,379.00 C406.07,379.00 404.81,377.32 404.09,375.25 C395.07,349.50 386.08,338.53 364.95,327.50 C360.73,325.30 352.16,320.09 345.89,315.91 C339.63,311.74 332.02,306.75 328.98,304.83 C324.71,302.11 322.47,300.75 321.30,298.75 C320.00,296.55 320.00,293.58 320.00,287.18 C320.00,286.94 320.00,286.70 320.00,286.45 L 320.00 275.04 L 323.75 273.01 C325.81,271.89 328.24,270.45 329.14,269.81 C330.50,268.85 332.66,269.85 341.64,275.64 C363.03,289.42 383.77,301.53 396.30,307.56 C404.54,311.52 413.55,314.05 427.50,316.31 C432.32,317.10 436.30,318.94 439.26,321.76 C445.88,328.08 445.41,341.87 438.19,353.50 C434.31,359.73 422.97,370.33 415.32,374.88 ZM 109.46 371.25 C107.94,375.57 106.16,379.00 105.44,379.00 C102.80,379.00 85.97,366.78 81.14,361.37 C63.35,341.41 65.55,318.64 85.50,316.34 C90.39,315.78 103.13,313.08 108.50,311.46 C116.21,309.14 142.54,294.10 168.26,277.32 C175.28,272.75 181.36,269.01 181.76,269.03 C182.17,269.04 184.75,270.50 187.50,272.28 L 192.50 275.50 L 192.25 285.50 C192.12,291.00 191.78,296.47 191.51,297.66 C191.22,298.88 188.28,301.67 184.75,304.06 C181.31,306.40 178.27,308.60 178.00,308.95 C177.73,309.31 175.25,310.89 172.50,312.46 C169.75,314.04 164.71,317.27 161.29,319.64 C157.88,322.01 151.46,325.74 147.03,327.93 C127.88,337.38 116.88,350.06 109.46,371.25 ZM 332.04 191.98 C322.62,196.79 312.63,192.54 307.99,181.75 C306.17,177.52 305.87,175.23 306.16,167.60 C306.74,152.21 312.52,144.12 323.58,143.20 C330.87,142.60 335.72,145.68 339.45,153.30 C346.34,167.40 342.67,186.56 332.04,191.98 ZM 196.16 191.11 C189.28,195.48 181.83,194.78 175.65,189.18 C168.32,182.55 167.34,162.60 173.82,152.01 C181.37,139.68 196.90,140.05 203.08,152.69 C205.08,156.79 205.43,159.06 205.46,168.00 C205.51,181.12 203.31,186.58 196.16,191.11 ZM 265.38 219.48 C252.97,221.45 244.97,220.35 235.04,215.29 C223.26,209.31 217.47,199.51 222.83,194.65 C225.63,192.12 227.91,192.61 236.27,197.59 C250.35,205.97 261.05,205.94 275.11,197.48 C283.03,192.72 285.94,192.08 288.43,194.57 C291.16,197.30 291.37,200.66 289.06,204.40 C284.63,211.57 274.49,218.03 265.38,219.48 Z" fill="rgb(25,73,41)" data-index="0" style="opacity: 1;"></path>
<path d="M 192.12 289.50 C192.17,288.38 192.21,287.21 192.24,286.03 L 194.00 284.00 C196.27,281.38 196.34,281.07 195.00,279.00 C194.30,277.91 194.03,277.86 194.02,278.81 C194.01,279.53 193.55,279.84 193.00,279.50 C192.76,279.35 192.56,279.46 192.39,279.78 L 192.50 275.50 L 187.86 272.51 C198.74,278.58 211.59,283.56 224.00,286.49 C228.12,287.46 231.95,288.71 232.50,289.27 C233.17,289.96 233.09,290.06 232.25,289.59 C231.56,289.20 231.00,289.33 231.00,289.88 C231.00,291.25 232.56,292.11 233.44,291.22 C233.84,290.83 243.02,290.46 253.83,290.40 C278.78,290.27 289.75,288.16 312.95,279.02 C315.87,277.87 318.50,277.17 318.80,277.46 C319.09,277.76 318.70,278.01 317.92,278.02 C316.72,278.03 316.72,278.17 317.88,278.91 C318.97,279.59 318.81,279.93 317.13,280.46 C315.96,280.83 315.00,281.49 315.00,281.93 C315.00,283.18 303.55,288.00 300.57,288.00 C299.09,288.00 298.09,288.34 298.34,288.75 C298.59,289.16 297.04,289.57 294.90,289.65 C290.88,289.80 282.44,292.25 277.95,294.56 C276.31,295.41 274.89,295.54 273.95,294.95 C273.15,294.44 270.61,294.02 268.31,294.02 C266.00,294.01 263.84,293.55 263.50,293.00 C263.16,292.45 262.12,292.01 261.19,292.02 C259.73,292.03 259.71,292.16 261.00,293.00 C262.14,293.74 261.72,293.97 259.25,293.98 C257.05,294.00 256.00,294.48 256.00,295.48 C256.00,297.13 258.33,297.85 265.00,298.24 C267.59,298.39 269.29,298.92 269.00,299.50 C268.48,300.53 244.82,301.25 242.36,300.31 C241.61,300.02 241.00,298.93 241.00,297.89 C241.00,296.23 241.82,295.99 247.75,295.91 C253.40,295.84 254.01,295.68 251.50,294.92 C249.85,294.43 244.96,293.79 240.63,293.50 C236.31,293.21 232.34,292.71 231.81,292.38 C231.28,292.06 229.65,291.64 228.18,291.46 C223.95,290.93 218.00,289.39 211.50,287.13 C202.15,283.89 200.74,284.16 198.28,289.75 C196.47,293.83 196.07,294.22 195.40,292.50 C194.96,291.40 194.02,289.91 193.31,289.18 C192.62,288.48 192.28,288.46 192.12,289.50 ZM 294.55 405.53 C284.71,407.68 235.82,408.32 233.11,406.34 C231.71,405.32 231.83,405.06 234.01,404.20 C235.38,403.67 237.85,402.67 239.50,401.99 C241.46,401.18 247.06,400.82 255.65,400.94 C264.09,401.07 269.04,400.75 269.46,400.07 C269.91,399.33 265.61,399.00 255.53,399.00 C242.94,399.00 240.85,398.78 240.31,397.36 C239.96,396.46 240.14,395.00 240.70,394.11 C241.54,392.78 244.10,392.45 255.47,392.22 C271.04,391.91 272.52,392.40 271.55,397.57 C270.89,401.11 271.98,402.00 277.00,402.00 C278.56,402.00 280.01,402.53 280.23,403.18 C280.53,404.09 281.65,404.08 285.06,403.15 C287.50,402.48 291.08,401.82 293.01,401.68 C294.94,401.53 296.97,401.15 297.51,400.84 C299.15,399.88 308.48,400.43 308.81,401.50 C308.98,402.05 307.63,402.79 305.81,403.15 C303.99,403.51 298.92,404.58 294.55,405.53 ZM 327.34 342.94 C325.94,346.67 325.51,352.54 325.01,375.00 C324.67,390.12 324.31,401.91 324.20,401.19 C324.09,400.47 323.60,400.13 323.11,400.43 C321.48,401.44 321.22,396.76 321.47,371.50 C321.72,346.56 322.53,335.59 324.06,336.54 C325.19,337.23 336.00,326.51 336.00,324.70 C336.00,322.82 339.03,322.03 346.31,322.01 C350.49,322.00 351.92,322.33 351.39,323.17 C350.90,323.96 351.22,324.13 352.39,323.68 C353.41,323.29 353.86,323.42 353.49,324.01 C353.16,324.56 351.67,325.00 350.19,325.00 C345.79,325.00 335.64,330.40 332.20,334.57 C330.47,336.67 328.28,340.44 327.34,342.94 ZM 189.00 399.50 C188.53,399.21 187.96,399.77 187.73,400.74 C187.51,401.71 187.12,389.90 186.87,374.50 C186.49,350.13 186.19,345.92 184.57,342.00 C181.06,333.51 172.77,326.79 164.11,325.40 C159.08,324.60 159.71,323.00 165.06,323.00 C167.23,323.00 169.00,322.55 169.00,322.00 C169.00,319.75 172.66,321.28 175.00,324.51 C176.38,326.40 178.30,328.23 179.28,328.55 C181.66,329.35 184.36,333.61 183.43,335.11 C183.00,335.81 183.11,336.05 183.70,335.69 C185.30,334.70 189.00,339.35 189.60,343.09 C189.90,344.97 190.39,356.01 190.70,367.63 C191.26,388.66 190.63,400.50 189.00,399.50 ZM 183.40 315.50 C181.04,317.29 178.56,317.39 177.25,315.75 C174.61,312.45 181.28,309.22 183.98,312.48 C185.09,313.81 185.00,314.29 183.40,315.50 ZM 224.32 405.34 C223.32,406.35 217.72,406.07 215.73,404.91 C213.09,403.37 214.61,402.00 218.94,402.00 C222.58,402.00 225.72,403.95 224.32,405.34 ZM 334.61 315.23 C334.00,315.64 333.25,315.98 332.94,315.98 C331.87,316.01 329.28,313.49 328.72,311.87 C328.27,310.58 328.79,310.27 331.24,310.40 C334.49,310.56 336.76,313.82 334.61,315.23 ZM 190.18 328.98 C190.16,329.24 189.73,329.59 189.21,329.76 C187.89,330.20 181.83,323.09 182.54,321.93 C183.05,321.11 190.25,327.74 190.18,328.98 ZM 191.00 306.50 C191.00,307.33 190.55,308.00 190.00,308.00 C189.45,308.00 189.00,307.33 189.00,306.50 C189.00,305.67 189.45,305.00 190.00,305.00 C190.55,305.00 191.00,305.67 191.00,306.50 ZM 320.00 275.32 L 320.00 286.45 C320.00,286.70 320.00,286.94 320.00,287.18 L 320.00 287.19 C320.00,288.65 320.00,289.93 320.01,291.06 C319.95,289.50 319.89,287.79 319.84,286.04 L 319.59 275.58 ZM 181.45 268.72 L 182.21 269.18 C181.99,269.08 181.84,269.03 181.76,269.03 C181.36,269.01 175.28,272.75 168.26,277.32 C156.86,284.77 145.33,291.86 135.36,297.66 C145.37,291.84 156.96,284.70 168.48,277.19 ZM 191.25 298.23 C190.39,300.10 188.55,301.49 184.65,304.13 C184.50,304.24 184.35,304.34 184.21,304.44 C184.39,304.31 184.57,304.19 184.75,304.06 C187.80,301.99 190.42,299.62 191.25,298.23 ZM 329.74 305.31 C333.15,307.50 340.10,312.06 345.89,315.91 C346.15,316.09 346.41,316.26 346.68,316.44 C342.20,313.54 336.69,309.92 329.74,305.31 ZM 320.26 295.41 C320.44,296.78 320.76,297.83 321.30,298.75 C321.52,299.14 321.79,299.50 322.10,299.85 C321.24,299.06 320.66,298.39 320.54,298.00 C320.45,297.69 320.35,296.76 320.26,295.41 ZM 330.55 269.52 C329.94,269.43 329.51,269.55 329.14,269.81 C328.24,270.45 325.81,271.89 323.75,273.01 L 323.50 273.15 L 324.04 272.81 C326.49,271.28 329.06,269.75 329.75,269.41 C329.87,269.35 330.15,269.39 330.55,269.52 ZM 191.54 297.47 C191.70,296.62 191.86,294.56 192.00,291.97 C192.00,294.63 191.94,296.19 191.54,297.47 ZM 353.57 320.84 C357.87,323.51 362.09,326.00 364.74,327.39 C361.80,325.85 358.49,323.93 353.57,320.84 Z" fill="rgb(53,127,60)" data-index="1"></path>
<path d="M 192.12 289.50 C192.28,288.46 192.62,288.48 193.31,289.18 C194.02,289.91 194.96,291.40 195.40,292.50 C196.07,294.22 196.47,293.83 198.28,289.75 C200.74,284.16 202.15,283.89 211.50,287.13 C218.00,289.39 223.95,290.93 228.18,291.46 C229.65,291.64 231.28,292.06 231.81,292.38 C232.34,292.71 236.31,293.21 240.63,293.50 C244.96,293.79 249.85,294.43 251.50,294.92 C254.01,295.68 253.40,295.84 247.75,295.91 C241.82,295.99 241.00,296.23 241.00,297.89 C241.00,298.93 241.61,300.02 242.36,300.31 C244.82,301.25 268.48,300.53 269.00,299.50 C269.29,298.92 267.59,298.39 265.00,298.24 C258.33,297.85 256.00,297.13 256.00,295.48 C256.00,294.48 257.05,294.00 259.25,293.98 C261.72,293.97 262.14,293.74 261.00,293.00 C259.71,292.16 259.73,292.03 261.19,292.02 C262.12,292.01 263.16,292.45 263.50,293.00 C263.84,293.55 266.00,294.01 268.31,294.02 C270.61,294.02 273.15,294.44 273.95,294.95 C274.89,295.54 276.31,295.41 277.95,294.56 C282.44,292.25 290.88,289.80 294.90,289.65 C297.04,289.57 298.59,289.16 298.34,288.75 C298.09,288.34 299.09,288.00 300.57,288.00 C303.55,288.00 315.00,283.18 315.00,281.93 C315.00,281.49 315.96,280.83 317.13,280.46 C318.81,279.93 318.97,279.59 317.88,278.91 C316.72,278.17 316.72,278.03 317.92,278.02 C318.70,278.01 319.09,277.76 318.80,277.46 C318.50,277.17 315.87,277.87 312.95,279.02 C296.73,285.41 286.49,288.37 273.27,289.61 C283.70,288.27 294.33,285.80 303.39,282.57 C308.55,280.72 314.90,277.87 320.00,275.23 L 320.00 275.32 L 319.59 275.58 L 319.84 286.04 C319.89,287.79 319.95,289.50 320.01,291.06 C320.04,292.83 320.10,294.24 320.26,295.41 C320.35,296.76 320.45,297.69 320.54,298.00 C320.66,298.39 321.24,299.06 322.10,299.85 C323.41,301.32 325.54,302.64 328.98,304.83 C329.21,304.97 329.46,305.13 329.74,305.31 C336.69,309.92 342.20,313.54 346.68,316.44 C348.83,317.86 351.21,319.37 353.57,320.84 C358.49,323.93 361.80,325.85 364.74,327.39 C364.81,327.43 364.88,327.46 364.95,327.50 C365.59,327.84 366.22,328.17 366.85,328.51 C357.90,324.03 350.54,323.83 342.34,327.46 C345.36,325.99 348.30,325.00 350.19,325.00 C351.67,325.00 353.16,324.56 353.49,324.01 C353.86,323.42 353.41,323.29 352.39,323.68 C351.22,324.13 350.90,323.96 351.39,323.17 C351.92,322.33 350.49,322.00 346.31,322.01 C339.03,322.03 336.00,322.82 336.00,324.70 C336.00,326.51 325.19,337.23 324.06,336.54 C322.53,335.59 321.72,346.56 321.47,371.50 C321.22,396.76 321.48,401.44 323.11,400.43 C323.60,400.13 324.09,400.47 324.20,401.19 C324.31,401.91 324.67,390.12 325.01,375.00 C325.30,362.20 325.56,354.79 325.99,350.09 C325.60,354.81 325.41,362.42 325.23,376.09 L 324.87 404.67 L 311.18 406.77 C303.66,407.92 293.67,409.37 289.00,409.99 C279.20,411.30 246.78,411.80 233.35,410.86 C223.99,410.20 188.90,405.12 188.00,404.30 C187.92,404.22 187.81,402.96 187.71,400.79 C187.72,400.80 187.73,400.78 187.73,400.74 C187.96,399.77 188.53,399.21 189.00,399.50 C190.63,400.50 191.26,388.66 190.70,367.63 C190.39,356.01 189.90,344.97 189.60,343.09 C189.00,339.35 185.30,334.70 183.70,335.69 C183.11,336.05 183.00,335.81 183.43,335.11 C184.36,333.61 181.66,329.35 179.28,328.55 C178.30,328.23 176.38,326.40 175.00,324.51 C172.66,321.28 169.00,319.75 169.00,322.00 C169.00,322.55 167.23,323.00 165.06,323.00 C159.71,323.00 159.08,324.60 164.11,325.40 C166.13,325.72 168.13,326.34 170.05,327.19 C167.29,326.08 164.19,325.47 160.46,325.22 C154.25,324.82 153.00,325.01 147.12,327.88 C151.55,325.69 157.90,321.99 161.29,319.64 C164.71,317.27 169.75,314.04 172.50,312.46 C175.25,310.89 177.73,309.31 178.00,308.95 C178.26,308.62 181.00,306.63 184.21,304.44 L 184.22 304.43 C184.36,304.33 184.51,304.23 184.65,304.13 C188.55,301.49 190.39,300.10 191.25,298.23 C191.38,298.02 191.47,297.82 191.51,297.66 C191.52,297.61 191.53,297.54 191.54,297.47 C191.94,296.19 192.00,294.63 192.00,292.35 C192.04,291.19 192.08,290.36 192.12,289.50 ZM 294.55 405.53 C298.92,404.58 303.99,403.51 305.81,403.15 C307.63,402.79 308.98,402.05 308.81,401.50 C308.48,400.43 299.15,399.88 297.51,400.84 C296.97,401.15 294.94,401.53 293.01,401.68 C291.08,401.82 287.50,402.48 285.06,403.15 C281.65,404.08 280.53,404.09 280.23,403.18 C280.01,402.53 278.56,402.00 277.00,402.00 C271.98,402.00 270.89,401.11 271.55,397.57 C272.52,392.40 271.04,391.91 255.47,392.22 C244.10,392.45 241.54,392.78 240.70,394.11 C240.14,395.00 239.96,396.46 240.31,397.36 C240.85,398.78 242.94,399.00 255.53,399.00 C265.61,399.00 269.91,399.33 269.46,400.07 C269.04,400.75 264.09,401.07 255.65,400.94 C247.06,400.82 241.46,401.18 239.50,401.99 C237.85,402.67 235.38,403.67 234.01,404.20 C231.83,405.06 231.71,405.32 233.11,406.34 C235.82,408.32 284.71,407.68 294.55,405.53 ZM 183.40 315.50 C185.00,314.29 185.09,313.81 183.98,312.48 C181.28,309.22 174.61,312.45 177.25,315.75 C178.56,317.39 181.04,317.29 183.40,315.50 ZM 224.32 405.34 C225.72,403.95 222.58,402.00 218.94,402.00 C214.61,402.00 213.09,403.37 215.73,404.91 C217.72,406.07 223.32,406.35 224.32,405.34 ZM 249.45 290.44 C240.64,290.56 233.79,290.88 233.44,291.22 C232.56,292.11 231.00,291.25 231.00,289.88 C231.00,289.33 231.56,289.20 232.25,289.59 C233.09,290.06 233.17,289.96 232.50,289.27 C231.95,288.71 228.12,287.46 224.00,286.49 C211.59,283.56 198.74,278.58 187.86,272.51 L 187.85 272.50 C205.85,282.53 228.63,289.08 249.45,290.44 ZM 334.61 315.23 C336.76,313.82 334.49,310.56 331.24,310.40 C328.79,310.27 328.27,310.58 328.72,311.87 C329.28,313.49 331.87,316.01 332.94,315.98 C333.25,315.98 334.00,315.64 334.61,315.23 ZM 190.18 328.98 C190.25,327.74 183.05,321.11 182.54,321.93 C181.83,323.09 187.89,330.20 189.21,329.76 C189.73,329.59 190.16,329.24 190.18,328.98 ZM 192.25 285.50 L 192.39 279.78 C192.56,279.46 192.76,279.35 193.00,279.50 C193.55,279.84 194.01,279.53 194.02,278.81 C194.03,277.86 194.30,277.91 195.00,279.00 C196.34,281.07 196.27,281.38 194.00,284.00 L 192.24 286.03 C192.24,285.85 192.25,285.68 192.25,285.50 ZM 191.00 306.50 C191.00,305.67 190.55,305.00 190.00,305.00 C189.45,305.00 189.00,305.67 189.00,306.50 C189.00,307.33 189.45,308.00 190.00,308.00 C190.55,308.00 191.00,307.33 191.00,306.50 ZM 362.62 288.75 C375.53,296.45 389.12,304.11 396.30,307.56 C387.96,303.55 376.00,296.85 362.62,288.75 ZM 441.94 345.70 C444.19,339.32 444.54,332.92 442.95,327.92 C444.61,332.53 444.48,338.22 442.34,344.57 C442.21,344.95 442.08,345.33 441.94,345.70 ZM 330.55 269.52 C330.15,269.39 329.87,269.35 329.75,269.41 C329.46,269.55 328.85,269.90 328.06,270.37 C328.11,270.32 328.16,270.28 328.21,270.24 C330.23,268.50 331.33,268.81 338.26,273.49 C334.02,270.83 331.86,269.70 330.55,269.52 ZM 372.63 331.85 C379.18,335.91 384.37,340.22 388.74,345.47 C385.31,341.47 381.33,337.98 376.42,334.44 C375.12,333.51 373.86,332.64 372.63,331.85 ZM 184.63 342.16 C185.82,345.09 186.27,348.34 186.59,360.14 C186.27,350.96 185.78,345.80 184.63,342.16 ZM 414.59 375.31 C411.11,377.51 408.16,379.00 406.89,379.00 C407.66,379.00 411.03,377.38 414.59,375.31 ZM 109.46 371.25 C113.59,359.46 118.82,350.31 125.95,342.88 C118.86,350.32 113.55,359.56 109.46,371.25 ZM 423.85 368.65 C426.63,366.31 429.41,363.73 431.85,361.21 C430.96,362.14 430.01,363.11 428.98,364.13 C427.52,365.57 425.75,367.12 423.85,368.65 ZM 331.03 336.15 C331.43,335.56 331.83,335.03 332.20,334.57 C332.90,333.73 333.86,332.84 334.99,331.96 C333.50,333.21 332.18,334.61 331.03,336.15 ZM 178.74 333.28 C179.01,333.56 179.28,333.84 179.54,334.14 C179.40,333.98 179.25,333.82 179.10,333.67 C178.98,333.53 178.86,333.41 178.74,333.28 Z" fill="rgb(55,127,63)" data-index="2"></path>
<path d="M 181.45 268.72 L 181.16 268.91 L 182.25 268.19 L 179.61 265.84 C169.29,256.70 154.00,239.79 154.00,237.51 C154.00,237.15 152.75,234.98 151.22,232.68 C147.26,226.73 144.41,220.42 142.54,213.50 C141.64,210.20 140.49,206.72 139.96,205.78 C138.24,202.65 136.78,184.72 137.46,175.00 C140.42,132.23 163.66,95.53 200.06,76.15 C219.00,66.07 235.16,62.00 256.19,62.00 C287.99,62.02 317.07,74.05 339.59,96.53 C360.76,117.66 372.18,142.29 375.00,172.95 C376.22,186.31 374.95,203.19 372.53,205.61 C371.82,206.32 370.93,208.61 370.55,210.70 C369.39,217.07 367.38,222.11 362.46,231.00 C359.88,235.68 357.47,239.73 357.13,240.00 C356.78,240.27 353.22,244.40 349.21,249.17 C342.99,256.56 338.03,261.52 332.25,266.09 C331.56,266.63 331.00,267.46 331.00,267.93 C331.00,268.35 332.80,269.78 335.82,271.87 C331.02,268.76 329.96,268.72 328.21,270.24 C328.16,270.28 328.11,270.32 328.06,270.37 C326.94,271.02 325.47,271.92 324.04,272.81 L 323.50 273.15 L 320.00 275.04 L 320.00 275.23 C314.90,277.87 308.55,280.72 303.39,282.57 C294.33,285.80 283.70,288.27 273.27,289.61 C267.58,290.15 261.34,290.36 253.83,290.40 C252.33,290.41 250.87,290.42 249.45,290.44 C228.63,289.08 205.85,282.53 187.85,272.50 L 187.50 272.28 C185.27,270.84 183.15,269.60 182.21,269.18 ZM 327.34 342.94 C328.08,340.98 329.58,338.25 331.03,336.15 C332.18,334.61 333.50,333.21 334.99,331.96 C337.07,330.33 339.73,328.72 342.34,327.46 C350.54,323.83 357.90,324.03 366.85,328.51 C368.89,329.61 370.81,330.72 372.63,331.85 C373.86,332.64 375.12,333.51 376.42,334.44 C381.33,337.98 385.31,341.47 388.74,345.47 C394.92,352.87 399.50,362.15 404.09,375.25 C404.81,377.32 406.07,379.00 406.89,379.00 C407.56,379.00 408.67,378.60 410.08,377.90 L 406.28 380.10 L 408.05 386.80 C412.39,403.28 413.10,427.43 409.61,439.90 C407.33,448.05 406.51,448.04 404.03,439.83 C400.36,427.68 395.40,422.98 386.30,423.02 C374.89,423.07 368.76,429.30 366.79,442.82 L 365.59 451.00 L 352.55 450.98 C340.88,450.97 339.08,450.73 335.53,448.72 C327.37,444.10 325.00,437.06 325.00,417.45 C325.00,408.16 324.68,405.00 323.75,405.00 C323.32,405.00 320.67,405.35 317.01,405.88 L 324.87 404.67 L 325.23 376.09 C325.41,362.42 325.60,354.81 325.99,350.09 L 325.99 350.09 C326.32,346.54 326.74,344.54 327.34,342.94 ZM 109.46 371.25 C113.55,359.56 118.86,350.33 125.95,342.88 L 125.95 342.88 C131.64,336.95 138.53,332.12 147.03,327.93 C147.06,327.91 147.09,327.90 147.12,327.88 L 147.12 327.88 C153.00,325.01 154.25,324.82 160.46,325.22 C164.19,325.47 167.29,326.08 170.05,327.19 C173.24,328.62 176.22,330.71 178.74,333.28 L 178.74 333.28 C178.86,333.41 178.98,333.54 179.10,333.67 C179.25,333.82 179.40,333.98 179.54,334.14 C181.65,336.46 183.38,339.13 184.57,342.00 C184.59,342.05 184.61,342.11 184.63,342.16 C185.78,345.80 186.27,350.96 186.59,360.14 C186.69,363.94 186.78,368.64 186.87,374.50 C187.11,389.26 187.47,400.71 187.71,400.79 C187.81,402.96 187.92,404.22 188.00,404.30 C188.29,404.56 192.17,405.28 197.59,406.14 C195.05,405.76 193.13,405.48 192.25,405.35 L 188.00 404.73 L 188.00 417.31 C188.00,437.07 185.65,444.09 177.47,448.72 C173.89,450.75 172.15,450.97 159.75,450.98 L 146.00 451.00 L 146.00 446.18 C146.00,431.69 138.49,423.00 125.98,423.00 C119.91,423.00 115.97,424.85 112.65,429.25 C110.07,432.67 107.00,440.71 107.00,444.03 C107.00,446.88 105.42,446.45 104.15,443.25 C99.62,431.92 99.89,406.69 104.73,386.60 C106.10,380.93 106.17,379.56 105.09,379.20 C102.91,378.47 97.15,374.58 91.70,370.43 C97.65,374.92 103.91,379.00 105.44,379.00 C106.16,379.00 107.94,375.57 109.46,371.25 ZM 332.04 191.98 C342.67,186.56 346.34,167.40 339.45,153.30 C335.72,145.68 330.87,142.60 323.58,143.20 C312.52,144.12 306.74,152.21 306.16,167.60 C305.87,175.23 306.17,177.52 307.99,181.75 C312.63,192.54 322.62,196.79 332.04,191.98 ZM 196.16 191.11 C203.31,186.58 205.51,181.12 205.46,168.00 C205.43,159.06 205.08,156.79 203.08,152.69 C196.90,140.05 181.37,139.68 173.82,152.01 C167.34,162.60 168.32,182.55 175.65,189.18 C181.83,194.78 189.28,195.48 196.16,191.11 ZM 265.38 219.48 C274.49,218.03 284.63,211.57 289.06,204.40 C291.37,200.66 291.16,197.30 288.43,194.57 C285.94,192.08 283.03,192.72 275.11,197.48 C261.05,205.94 250.35,205.97 236.27,197.59 C227.91,192.61 225.63,192.12 222.83,194.65 C217.47,199.51 223.26,209.31 235.04,215.29 C244.97,220.35 252.97,221.45 265.38,219.48 ZM 153.63 286.65 C147.23,290.63 141.04,294.36 135.36,297.66 C122.85,304.94 112.79,310.17 108.50,311.46 C104.26,312.73 95.45,314.68 89.52,315.73 C95.27,314.71 103.85,312.81 108.40,311.48 C114.08,309.83 133.53,299.04 153.63,286.65 ZM 282.54 410.57 C285.18,410.40 287.39,410.21 289.00,409.99 C292.24,409.56 298.04,408.73 303.80,407.88 C298.07,408.75 292.26,409.63 289.31,410.06 C288.04,410.25 285.66,410.42 282.54,410.57 ZM 210.06 408.00 C216.59,408.93 223.30,409.81 228.21,410.36 C223.68,409.97 219.31,409.39 213.50,408.52 C212.35,408.35 211.20,408.18 210.06,408.00 ZM 385.58 301.95 C378.77,298.21 370.57,293.49 362.62,288.75 C361.17,287.88 359.71,286.99 358.24,286.08 C367.44,291.65 377.44,297.47 385.58,301.95 ZM 431.27 361.81 C431.46,361.61 431.66,361.41 431.84,361.21 C434.56,358.40 436.83,355.68 438.19,353.50 C436.69,355.90 434.22,358.83 431.27,361.81 Z" fill="rgb(103,175,90)" data-index="3"></path>
<path d="M 339.54 274.29 C339.10,274.01 338.67,273.74 338.26,273.49 C337.35,272.87 336.54,272.34 335.82,271.87 C332.80,269.78 331.00,268.35 331.00,267.93 C331.00,267.46 331.56,266.63 332.25,266.09 C338.03,261.52 342.99,256.56 349.21,249.17 C353.22,244.40 356.78,240.27 357.13,240.00 C357.47,239.73 359.88,235.68 362.46,231.00 C367.38,222.11 369.39,217.07 370.55,210.70 C370.93,208.61 371.82,206.32 372.53,205.61 C373.34,204.80 374.03,202.36 374.53,198.98 C374.10,203.64 374.24,205.58 374.95,206.43 C375.85,207.53 375.76,207.91 374.51,208.17 C373.51,208.38 371.79,211.80 369.87,217.39 C365.05,231.38 356.93,244.90 347.86,254.02 C343.59,258.31 338.50,263.04 336.55,264.53 C334.60,266.02 333.00,267.84 333.00,268.58 C333.00,269.39 335.10,271.24 339.54,274.29 ZM 137.81 192.83 C138.31,198.93 139.10,204.21 139.96,205.78 C140.49,206.72 141.64,210.20 142.54,213.50 C144.41,220.42 147.26,226.73 151.22,232.68 C152.75,234.98 154.00,237.15 154.00,237.51 C154.00,239.79 169.29,256.70 179.61,265.84 L 182.25 268.19 L 181.16 268.91 L 175.31 272.73 C179.96,269.16 180.14,266.95 176.36,264.93 C172.77,263.00 158.52,247.68 154.48,241.38 C149.68,233.90 143.47,221.31 141.47,215.00 C140.52,211.98 139.48,209.06 139.17,208.53 C138.59,207.53 138.07,200.88 137.81,192.83 ZM 375.16 193.07 C375.60,186.93 375.60,179.52 375.00,172.95 C374.27,165.10 372.99,157.65 371.12,150.55 C375.01,164.63 376.48,179.31 375.16,193.07 ZM 355.24 115.35 C350.78,108.76 345.58,102.51 339.59,96.53 C334.42,91.37 328.89,86.75 323.07,82.71 C335.35,91.12 346.24,101.97 355.01,115.01 C355.08,115.12 355.16,115.24 355.24,115.35 ZM 193.97 79.63 C187.19,83.77 180.92,88.54 175.22,93.87 C178.33,90.92 181.61,88.11 185.06,85.46 C187.22,83.79 190.40,81.73 193.97,79.63 ZM 151.68 124.62 C146.56,134.25 142.70,144.67 140.25,155.67 C142.58,144.83 146.43,134.39 151.68,124.62 ZM 413.12 313.46 C406.60,311.85 401.31,309.97 396.30,307.56 C395.66,307.25 394.97,306.91 394.23,306.54 C400.88,309.73 406.60,311.82 413.12,313.46 ZM 215.00 69.15 C216.23,68.70 217.46,68.28 218.70,67.88 C213.84,69.57 208.97,71.64 203.94,74.15 C208.11,72.02 212.08,70.20 215.00,69.15 ZM 246.98 62.29 C255.36,61.65 263.71,61.91 271.91,63.01 C266.76,62.34 261.51,62.01 256.19,62.00 C253.02,62.00 249.95,62.09 246.98,62.29 ZM 153.63 286.65 L 153.62 286.65 C141.60,294.06 129.82,300.90 121.07,305.55 C129.78,300.91 141.60,294.05 154.01,286.41 C153.88,286.49 153.75,286.57 153.63,286.65 Z" fill="rgb(127,157,71)" data-index="4"></path>
<path d="M 138.55 205.20 C138.74,206.97 138.95,208.15 139.17,208.53 C139.48,209.06 140.52,211.98 141.47,215.00 C143.47,221.31 149.68,233.90 154.48,241.38 C158.52,247.68 172.77,263.00 176.36,264.93 C180.14,266.95 179.96,269.16 175.31,272.73 L 168.48 277.19 C163.62,280.35 158.76,283.45 154.01,286.41 C141.60,294.05 129.78,300.91 121.07,305.55 C115.19,308.68 110.69,310.82 108.40,311.48 C103.85,312.81 95.27,314.71 89.52,315.73 C87.92,316.01 86.54,316.22 85.50,316.34 C83.86,316.53 82.35,316.86 80.95,317.31 C82.60,316.23 82.78,314.38 83.88,305.93 C88.35,271.82 106.71,235.98 132.45,211.10 ZM 385.58 301.95 C377.44,297.47 367.44,291.65 358.24,286.08 L 358.24 286.08 C352.84,282.77 347.27,279.26 341.64,275.64 C340.90,275.16 340.20,274.71 339.54,274.29 C335.10,271.24 333.00,269.39 333.00,268.58 C333.00,267.84 334.60,266.02 336.55,264.53 C338.50,263.04 343.59,258.31 347.86,254.02 C356.93,244.90 365.05,231.38 369.87,217.39 C371.79,211.80 373.51,208.38 374.51,208.17 C375.76,207.91 375.85,207.53 374.95,206.43 C374.85,206.32 374.77,206.19 374.70,206.04 L 384.20 215.80 C409.77,242.07 425.33,274.78 429.60,311.22 C430.10,315.53 430.38,316.66 432.05,317.45 C430.63,316.96 429.11,316.58 427.50,316.31 C422.03,315.43 417.32,314.50 413.12,313.46 L 413.12 313.46 C406.60,311.81 400.88,309.73 394.23,306.54 C391.79,305.31 388.85,303.74 385.58,301.95 ZM 145.94 136.95 C143.53,143.02 141.62,149.27 140.25,155.67 C139.68,158.25 139.18,160.87 138.76,163.51 C139.06,161.04 139.42,158.78 139.83,156.86 C141.28,150.05 143.33,143.39 145.94,136.95 ZM 75.27 320.30 C70.07,324.46 68.09,331.37 69.50,339.30 C68.03,331.31 69.92,324.32 75.27,320.30 ZM 440.26 322.83 C439.94,322.45 439.61,322.09 439.26,321.76 C437.60,320.18 435.62,318.90 433.35,317.95 C433.39,317.96 433.43,317.98 433.47,317.99 C436.29,318.92 438.56,320.60 440.26,322.83 ZM 442.27 344.77 C441.33,347.68 439.97,350.62 438.19,353.49 C439.76,350.96 441.01,348.33 441.94,345.70 C442.05,345.39 442.16,345.08 442.27,344.77 ZM 137.81 192.83 C137.82,193.26 137.84,193.69 137.85,194.12 C137.80,193.26 137.75,192.37 137.70,191.45 C137.74,191.92 137.77,192.38 137.81,192.83 ZM 371.12 150.55 L 371.10 150.47 C371.99,153.68 372.75,156.91 373.38,160.16 C372.75,156.94 372.00,153.73 371.12,150.55 Z" fill="rgb(171,131,51)" data-index="5"></path>
<path d="M 176.93 449.02 C172.54,451.47 172.18,451.50 147.00,451.62 C122.87,451.73 114.04,451.00 110.08,448.55 C109.34,448.09 107.81,447.67 106.70,447.61 C105.47,447.54 104.56,446.71 104.39,445.50 C104.31,444.89 104.02,443.53 103.64,441.87 C103.80,442.35 103.97,442.81 104.15,443.25 C105.42,446.45 107.00,446.88 107.00,444.03 C107.00,440.71 110.07,432.67 112.65,429.25 C115.97,424.85 119.91,423.00 125.98,423.00 C138.49,423.00 146.00,431.69 146.00,446.18 L 146.00 451.00 L 159.75 450.98 C171.51,450.97 173.68,450.77 176.93,449.02 ZM 336.06 449.01 C339.29,450.75 341.48,450.97 352.55,450.98 L 365.59 451.00 L 366.79 442.82 C368.76,429.30 374.89,423.07 386.30,423.02 C395.40,422.98 400.36,427.68 404.03,439.83 C406.43,447.78 407.28,448.04 409.41,440.63 C407.30,448.08 408.39,447.35 395.38,450.35 C390.91,451.38 382.69,451.72 364.88,451.63 C340.89,451.50 340.44,451.46 336.06,449.01 ZM 411.82 417.47 C411.71,407.06 410.42,395.79 408.05,386.80 C410.47,395.98 411.75,407.09 411.82,417.47 ZM 101.87 434.05 C101.36,430.93 101.07,427.23 100.97,423.21 C101.08,427.11 101.38,430.77 101.87,434.05 ZM 327.44 439.38 C325.63,434.56 325.00,427.78 325.00,417.45 C325.00,427.72 325.65,434.54 327.44,439.38 ZM 185.57 439.35 C187.36,434.51 188.00,427.66 188.00,417.31 C188.00,427.71 187.38,434.52 185.57,439.35 Z" fill="rgb(234,231,207)" data-index="6" style="opacity: 1;"></path>

</g>
</svg>